<mxfile host="app.diagrams.net" modified="2023-10-19T06:20:10.263Z" agent="Mozilla/5.0 (Windows NT 10.0; Win64; x64; rv:109.0) Gecko/20100101 Firefox/118.0" etag="fJdQjVaOMq6KZoSqJze0" version="22.0.4" type="device">
  <diagram name="Page-1" id="3wXWZCZcywb3zZNxN4Qk">
    <mxGraphModel dx="1514" dy="702" grid="1" gridSize="10" guides="1" tooltips="1" connect="1" arrows="1" fold="1" page="1" pageScale="1" pageWidth="850" pageHeight="1100" math="0" shadow="0">
      <root>
        <mxCell id="0" />
        <mxCell id="1" parent="0" />
        <mxCell id="5x2095Nd9B_tEvtKQkh5-8" style="edgeStyle=orthogonalEdgeStyle;rounded=0;orthogonalLoop=1;jettySize=auto;html=1;exitX=0.5;exitY=1;exitDx=0;exitDy=0;entryX=0.5;entryY=0;entryDx=0;entryDy=0;" edge="1" parent="1" source="5x2095Nd9B_tEvtKQkh5-2" target="5x2095Nd9B_tEvtKQkh5-3">
          <mxGeometry relative="1" as="geometry" />
        </mxCell>
        <mxCell id="5x2095Nd9B_tEvtKQkh5-2" value="Sākums" style="ellipse;whiteSpace=wrap;html=1;aspect=fixed;" vertex="1" parent="1">
          <mxGeometry x="290" y="30" width="80" height="80" as="geometry" />
        </mxCell>
        <mxCell id="5x2095Nd9B_tEvtKQkh5-9" style="edgeStyle=orthogonalEdgeStyle;rounded=0;orthogonalLoop=1;jettySize=auto;html=1;exitX=0.5;exitY=1;exitDx=0;exitDy=0;entryX=0.5;entryY=0;entryDx=0;entryDy=0;" edge="1" parent="1" source="5x2095Nd9B_tEvtKQkh5-3" target="5x2095Nd9B_tEvtKQkh5-4">
          <mxGeometry relative="1" as="geometry" />
        </mxCell>
        <mxCell id="5x2095Nd9B_tEvtKQkh5-3" value="&lt;div&gt;skaitlis = random(0,100)&lt;/div&gt;&lt;div&gt;dzīvības = 5&lt;br&gt;&lt;/div&gt;" style="rounded=0;whiteSpace=wrap;html=1;" vertex="1" parent="1">
          <mxGeometry x="270" y="140" width="120" height="60" as="geometry" />
        </mxCell>
        <mxCell id="5x2095Nd9B_tEvtKQkh5-10" style="edgeStyle=orthogonalEdgeStyle;rounded=0;orthogonalLoop=1;jettySize=auto;html=1;exitX=0.5;exitY=1;exitDx=0;exitDy=0;entryX=0.5;entryY=0;entryDx=0;entryDy=0;" edge="1" parent="1" source="5x2095Nd9B_tEvtKQkh5-4" target="5x2095Nd9B_tEvtKQkh5-5">
          <mxGeometry relative="1" as="geometry" />
        </mxCell>
        <mxCell id="5x2095Nd9B_tEvtKQkh5-19" style="edgeStyle=orthogonalEdgeStyle;rounded=0;orthogonalLoop=1;jettySize=auto;html=1;exitX=1;exitY=0.5;exitDx=0;exitDy=0;entryX=0;entryY=0.5;entryDx=0;entryDy=0;" edge="1" parent="1" source="5x2095Nd9B_tEvtKQkh5-4" target="5x2095Nd9B_tEvtKQkh5-18">
          <mxGeometry relative="1" as="geometry" />
        </mxCell>
        <mxCell id="5x2095Nd9B_tEvtKQkh5-4" value="dzīvības &amp;gt; 0" style="rhombus;whiteSpace=wrap;html=1;" vertex="1" parent="1">
          <mxGeometry x="290" y="220" width="80" height="80" as="geometry" />
        </mxCell>
        <mxCell id="5x2095Nd9B_tEvtKQkh5-11" style="edgeStyle=orthogonalEdgeStyle;rounded=0;orthogonalLoop=1;jettySize=auto;html=1;exitX=0.5;exitY=1;exitDx=0;exitDy=0;entryX=0.5;entryY=0;entryDx=0;entryDy=0;" edge="1" parent="1" source="5x2095Nd9B_tEvtKQkh5-5" target="5x2095Nd9B_tEvtKQkh5-6">
          <mxGeometry relative="1" as="geometry" />
        </mxCell>
        <mxCell id="5x2095Nd9B_tEvtKQkh5-5" value="minējums" style="shape=parallelogram;perimeter=parallelogramPerimeter;whiteSpace=wrap;html=1;fixedSize=1;" vertex="1" parent="1">
          <mxGeometry x="270" y="340" width="120" height="60" as="geometry" />
        </mxCell>
        <mxCell id="5x2095Nd9B_tEvtKQkh5-17" style="edgeStyle=orthogonalEdgeStyle;rounded=0;orthogonalLoop=1;jettySize=auto;html=1;exitX=1;exitY=0.5;exitDx=0;exitDy=0;entryX=0.5;entryY=1;entryDx=0;entryDy=0;" edge="1" parent="1" source="5x2095Nd9B_tEvtKQkh5-6" target="5x2095Nd9B_tEvtKQkh5-15">
          <mxGeometry relative="1" as="geometry" />
        </mxCell>
        <mxCell id="5x2095Nd9B_tEvtKQkh5-29" style="edgeStyle=orthogonalEdgeStyle;rounded=0;orthogonalLoop=1;jettySize=auto;html=1;exitX=0.5;exitY=1;exitDx=0;exitDy=0;entryX=0.5;entryY=0;entryDx=0;entryDy=0;" edge="1" parent="1" source="5x2095Nd9B_tEvtKQkh5-6" target="5x2095Nd9B_tEvtKQkh5-27">
          <mxGeometry relative="1" as="geometry" />
        </mxCell>
        <mxCell id="5x2095Nd9B_tEvtKQkh5-6" value="minējums = skaitlis" style="rhombus;whiteSpace=wrap;html=1;" vertex="1" parent="1">
          <mxGeometry x="290" y="440" width="80" height="80" as="geometry" />
        </mxCell>
        <mxCell id="5x2095Nd9B_tEvtKQkh5-13" style="edgeStyle=orthogonalEdgeStyle;rounded=0;orthogonalLoop=1;jettySize=auto;html=1;exitX=0.5;exitY=0;exitDx=0;exitDy=0;" edge="1" parent="1" source="5x2095Nd9B_tEvtKQkh5-7">
          <mxGeometry relative="1" as="geometry">
            <mxPoint x="330" y="210" as="targetPoint" />
            <Array as="points">
              <mxPoint x="170" y="210" />
            </Array>
          </mxGeometry>
        </mxCell>
        <mxCell id="5x2095Nd9B_tEvtKQkh5-7" value="dzīvības = dzīvības - 1" style="rounded=0;whiteSpace=wrap;html=1;" vertex="1" parent="1">
          <mxGeometry x="100" y="460" width="120" height="60" as="geometry" />
        </mxCell>
        <mxCell id="5x2095Nd9B_tEvtKQkh5-21" style="edgeStyle=orthogonalEdgeStyle;rounded=0;orthogonalLoop=1;jettySize=auto;html=1;exitX=1;exitY=0.5;exitDx=0;exitDy=0;entryX=0.5;entryY=1;entryDx=0;entryDy=0;" edge="1" parent="1" source="5x2095Nd9B_tEvtKQkh5-15" target="5x2095Nd9B_tEvtKQkh5-16">
          <mxGeometry relative="1" as="geometry" />
        </mxCell>
        <mxCell id="5x2095Nd9B_tEvtKQkh5-15" value="&quot;Uzvara&quot;" style="shape=parallelogram;perimeter=parallelogramPerimeter;whiteSpace=wrap;html=1;fixedSize=1;" vertex="1" parent="1">
          <mxGeometry x="470" y="380" width="120" height="60" as="geometry" />
        </mxCell>
        <mxCell id="5x2095Nd9B_tEvtKQkh5-16" value="Beigas" style="ellipse;whiteSpace=wrap;html=1;aspect=fixed;" vertex="1" parent="1">
          <mxGeometry x="670" y="310" width="80" height="80" as="geometry" />
        </mxCell>
        <mxCell id="5x2095Nd9B_tEvtKQkh5-20" style="edgeStyle=orthogonalEdgeStyle;rounded=0;orthogonalLoop=1;jettySize=auto;html=1;exitX=1;exitY=0.5;exitDx=0;exitDy=0;entryX=0.5;entryY=0;entryDx=0;entryDy=0;" edge="1" parent="1" source="5x2095Nd9B_tEvtKQkh5-18" target="5x2095Nd9B_tEvtKQkh5-16">
          <mxGeometry relative="1" as="geometry" />
        </mxCell>
        <mxCell id="5x2095Nd9B_tEvtKQkh5-18" value="&quot;Zaudējāt&quot;" style="shape=parallelogram;perimeter=parallelogramPerimeter;whiteSpace=wrap;html=1;fixedSize=1;" vertex="1" parent="1">
          <mxGeometry x="470" y="230" width="120" height="60" as="geometry" />
        </mxCell>
        <mxCell id="5x2095Nd9B_tEvtKQkh5-22" value="Nē" style="text;html=1;align=center;verticalAlign=middle;resizable=0;points=[];autosize=1;strokeColor=none;fillColor=none;" vertex="1" parent="1">
          <mxGeometry x="370" y="228" width="40" height="30" as="geometry" />
        </mxCell>
        <mxCell id="5x2095Nd9B_tEvtKQkh5-23" value="Jā" style="text;html=1;align=center;verticalAlign=middle;resizable=0;points=[];autosize=1;strokeColor=none;fillColor=none;" vertex="1" parent="1">
          <mxGeometry x="320" y="298" width="40" height="30" as="geometry" />
        </mxCell>
        <mxCell id="5x2095Nd9B_tEvtKQkh5-25" value="Jā" style="text;html=1;align=center;verticalAlign=middle;resizable=0;points=[];autosize=1;strokeColor=none;fillColor=none;" vertex="1" parent="1">
          <mxGeometry x="390" y="448" width="40" height="30" as="geometry" />
        </mxCell>
        <mxCell id="5x2095Nd9B_tEvtKQkh5-30" style="edgeStyle=orthogonalEdgeStyle;rounded=0;orthogonalLoop=1;jettySize=auto;html=1;exitX=0.5;exitY=1;exitDx=0;exitDy=0;" edge="1" parent="1" source="5x2095Nd9B_tEvtKQkh5-27">
          <mxGeometry relative="1" as="geometry">
            <mxPoint x="330" y="660" as="targetPoint" />
          </mxGeometry>
        </mxCell>
        <mxCell id="5x2095Nd9B_tEvtKQkh5-32" style="edgeStyle=orthogonalEdgeStyle;rounded=0;orthogonalLoop=1;jettySize=auto;html=1;exitX=0;exitY=0.5;exitDx=0;exitDy=0;" edge="1" parent="1" source="5x2095Nd9B_tEvtKQkh5-27">
          <mxGeometry relative="1" as="geometry">
            <mxPoint x="220" y="580" as="targetPoint" />
          </mxGeometry>
        </mxCell>
        <mxCell id="5x2095Nd9B_tEvtKQkh5-27" value="Minejums &amp;gt; skaitlis" style="rhombus;whiteSpace=wrap;html=1;" vertex="1" parent="1">
          <mxGeometry x="290" y="540" width="80" height="80" as="geometry" />
        </mxCell>
        <mxCell id="5x2095Nd9B_tEvtKQkh5-31" value="Nē" style="text;html=1;align=center;verticalAlign=middle;resizable=0;points=[];autosize=1;strokeColor=none;fillColor=none;" vertex="1" parent="1">
          <mxGeometry x="295" y="620" width="40" height="30" as="geometry" />
        </mxCell>
        <mxCell id="5x2095Nd9B_tEvtKQkh5-33" value="Jā" style="text;html=1;align=center;verticalAlign=middle;resizable=0;points=[];autosize=1;strokeColor=none;fillColor=none;" vertex="1" parent="1">
          <mxGeometry x="230" y="548" width="40" height="30" as="geometry" />
        </mxCell>
        <mxCell id="5x2095Nd9B_tEvtKQkh5-37" style="edgeStyle=orthogonalEdgeStyle;rounded=0;orthogonalLoop=1;jettySize=auto;html=1;exitX=0.75;exitY=0;exitDx=0;exitDy=0;entryX=0.75;entryY=1;entryDx=0;entryDy=0;" edge="1" parent="1" source="5x2095Nd9B_tEvtKQkh5-34" target="5x2095Nd9B_tEvtKQkh5-7">
          <mxGeometry relative="1" as="geometry" />
        </mxCell>
        <mxCell id="5x2095Nd9B_tEvtKQkh5-34" value="&quot;Skaitlis ir mazāks&quot;" style="shape=parallelogram;perimeter=parallelogramPerimeter;whiteSpace=wrap;html=1;fixedSize=1;" vertex="1" parent="1">
          <mxGeometry x="100" y="560" width="120" height="60" as="geometry" />
        </mxCell>
        <mxCell id="5x2095Nd9B_tEvtKQkh5-35" value="Nē" style="text;html=1;align=center;verticalAlign=middle;resizable=0;points=[];autosize=1;strokeColor=none;fillColor=none;" vertex="1" parent="1">
          <mxGeometry x="290" y="520" width="40" height="30" as="geometry" />
        </mxCell>
        <mxCell id="5x2095Nd9B_tEvtKQkh5-38" style="edgeStyle=orthogonalEdgeStyle;rounded=0;orthogonalLoop=1;jettySize=auto;html=1;exitX=0;exitY=0.5;exitDx=0;exitDy=0;entryX=0;entryY=0.5;entryDx=0;entryDy=0;" edge="1" parent="1" source="5x2095Nd9B_tEvtKQkh5-36" target="5x2095Nd9B_tEvtKQkh5-7">
          <mxGeometry relative="1" as="geometry" />
        </mxCell>
        <mxCell id="5x2095Nd9B_tEvtKQkh5-36" value="&quot;Skaitlis ir lielāks&quot;" style="shape=parallelogram;perimeter=parallelogramPerimeter;whiteSpace=wrap;html=1;fixedSize=1;" vertex="1" parent="1">
          <mxGeometry x="270" y="660" width="120" height="60" as="geometry" />
        </mxCell>
      </root>
    </mxGraphModel>
  </diagram>
</mxfile>
